<?xml version="1.0" encoding="UTF-8" standalone="no"?>
<!-- Created with Inkscape (http://www.inkscape.org/) -->

<svg
   xmlns:dc="http://purl.org/dc/elements/1.1/"
   xmlns:cc="http://creativecommons.org/ns#"
   xmlns:rdf="http://www.w3.org/1999/02/22-rdf-syntax-ns#"
   xmlns:svg="http://www.w3.org/2000/svg"
   xmlns="http://www.w3.org/2000/svg"
   xmlns:sodipodi="http://sodipodi.sourceforge.net/DTD/sodipodi-0.dtd"
   xmlns:inkscape="http://www.inkscape.org/namespaces/inkscape"
   width="320.23993mm"
   height="31.638309mm"
   viewBox="0 0 320.23993 31.638309"
   version="1.1"
   id="svg8"
   inkscape:version="0.92.5 (2060ec1f9f, 2020-04-08)"
   sodipodi:docname="powerofpowerbrand.svg">
  <defs
     id="defs2" />
  <sodipodi:namedview
     id="base"
     pagecolor="#ffffff"
     bordercolor="#666666"
     borderopacity="1.0"
     inkscape:pageopacity="0.0"
     inkscape:pageshadow="2"
     inkscape:zoom="0.35"
     inkscape:cx="-81.096367"
     inkscape:cy="578.89974"
     inkscape:document-units="mm"
     inkscape:current-layer="layer1"
     showgrid="false"
     inkscape:pagecheckerboard="true"
     inkscape:window-width="1920"
     inkscape:window-height="1017"
     inkscape:window-x="-8"
     inkscape:window-y="-8"
     inkscape:window-maximized="1" />
  <metadata
     id="metadata5">
    <rdf:RDF>
      <cc:Work
         rdf:about="">
        <dc:format>image/svg+xml</dc:format>
        <dc:type
           rdf:resource="http://purl.org/dc/dcmitype/StillImage" />
        <dc:title></dc:title>
      </cc:Work>
    </rdf:RDF>
  </metadata>
  <g
     inkscape:label="Layer 1"
     inkscape:groupmode="layer"
     id="layer1"
     transform="translate(5.0015863,-270.36225)">
    <path
       style="color:#000000;font-style:normal;font-variant:normal;font-weight:normal;font-stretch:normal;font-size:50.79999924px;line-height:1.25;font-family:supercerealoso;-inkscape-font-specification:supercerealoso;font-variant-ligatures:normal;font-variant-position:normal;font-variant-caps:normal;font-variant-numeric:normal;font-variant-alternates:normal;font-feature-settings:normal;text-indent:0;text-align:start;text-decoration:none;text-decoration-line:none;text-decoration-style:solid;text-decoration-color:#000000;letter-spacing:0px;word-spacing:0px;text-transform:none;writing-mode:lr-tb;direction:ltr;text-orientation:mixed;dominant-baseline:auto;baseline-shift:baseline;text-anchor:start;white-space:normal;shape-padding:0;clip-rule:nonzero;display:inline;overflow:visible;visibility:visible;opacity:1;isolation:auto;mix-blend-mode:normal;color-interpolation:sRGB;color-interpolation-filters:linearRGB;solid-color:#000000;solid-opacity:1;vector-effect:none;fill:#ffffff;fill-opacity:1;fill-rule:nonzero;stroke:none;stroke-width:37.79527664;stroke-linecap:butt;stroke-linejoin:round;stroke-miterlimit:4;stroke-dasharray:none;stroke-dashoffset:0;stroke-opacity:1;color-rendering:auto;image-rendering:auto;shape-rendering:auto;text-rendering:auto;enable-background:accumulate"
       d="m 653.37891,1021.8418 c -7.63287,0.014 -16.52519,0.6592 -27.14453,1.8262 a 18.899528,18.899528 0 0 0 -0.0215,0 l -13.82617,1.5371 a 18.899528,18.899528 0 0 0 -16.7793,17.6855 l -0.125,2.1699 c -8.88915,-5.3164 -17.86102,-9.0469 -27.53515,-10.0761 a 18.899528,18.899528 0 0 0 -0.22071,-0.022 c -4.73755,-0.4469 -7.03833,-3.6151 -3.11328,0.031 -5.31461,-4.6814 -9.06574,-4.3516 -12.36719,-4.9257 -3.82261,-0.6648 -7.54016,-0.8714 -11.89062,-0.9454 h -0.008 c -8.43255,-0.1455 -14.85149,-0.1486 -22.62696,2.6446 -9.30327,3.3271 -14.65292,8.876 -20.72851,15.707 -6.04196,6.6535 -10.79799,12.8848 -13.61914,21.0918 a 18.899528,18.899528 0 0 0 -0.0293,0.08 c -4.01182,11.8443 -3.4182,25.7446 2.67969,36.8515 a 18.899528,18.899528 0 0 0 0.2207,0.3829 c 6.29926,10.8607 16.0801,18.5452 28.28125,25.6152 9.83384,5.8508 20.14273,9.7035 31.0918,9.9141 a 18.899528,18.899528 0 0 0 0.008,0 c 10.97303,0.2071 21.51338,-3.0832 31.94922,-8.379 a 18.899528,18.899528 0 0 0 0.0371,-0.021 c 9.41676,-4.8026 17.58598,-9.9469 24.38867,-15.9473 4.81344,3.5432 15.67511,5.3968 21.69531,2.3867 8.48931,-4.2446 10.93533,-11.2543 12.12891,-15.8047 0.60261,-2.2975 0.50479,-4.3557 0.70117,-6.4668 3.72011,-0.7548 7.35384,-1.5854 10.78516,-2.8925 a 18.899528,18.899528 0 0 0 0.42773,-0.17 c 1.9962,-0.8166 3.83849,-1.6185 6.12695,-3.0488 2.28851,-1.4303 6.28927,-2.446 9.25586,-11.3457 0.79922,-2.3976 1.01958,-5.364 0.7461,-8.2988 4.13552,-0.2612 8.208,-0.799 12.60937,-2.4727 2.60856,-0.9875 5.52612,-2.2503 8.84375,-5.3437 3.32289,-3.0984 6.90039,-9.2941 6.90039,-15.6348 0,-12.6363 -7.04282,-16.7165 -11.25586,-19.7832 -9.62747,-7.079 -16.0675,-6.1198 -24.39062,-6.3125 -1.04039,-0.024 -2.1049,-0.035 -3.19531,-0.033 z m -642.578129,4.6484 c -6.5255822,0.032 -10.45511472,2.9583 -12.6972654,4.752 -2.5271779,2.0217 -3.8886184,3.7353 -5.2265625,5.4785 -5.3759621,6.7854 -5.5206911,11.6979 -6.0761721,16.6973 a 18.899528,18.899528 0 0 0 -0.05859,0.6425 c -0.236108,3.0694 -0.673195,7.9256 -1.306641,14.3868 a 18.899528,18.899528 0 0 0 -0.0293,0.332 c -0.458892,5.7361 -1.201473,11.1749 -2.207031,16.3145 -1.42291,7.1246 -2.295776,12.9183 -2.066407,19.1113 a 18.899528,18.899528 0 0 0 0.0059,0.2226 c 0.234554,4.8084 0.396003,11.0679 7.146484,17.8184 3.375241,3.3753 8.7463439,5.8375 13.3691409,6.2676 4.4619249,0.415 7.9005018,-0.5518 10.6503911,-1.6016 6.931402,-2.5719 11.98819,-8.8726 13.945312,-13.8633 1.296604,-3.3063 1.237942,-6.0158 1.476562,-8.8515 1.256978,-0.3712 2.030789,-0.7332 3.763672,-0.9883 l 0.04492,-0.01 c 4.948832,-0.7088 9.632397,-1.6799 14.078125,-3.0254 0.681488,1.8261 1.474522,3.6109 2.414063,5.3222 a 18.899528,18.899528 0 0 0 0.21289,0.3829 c 6.296663,10.8563 16.07151,18.5397 28.265625,25.6074 9.840008,5.8577 20.158592,9.7111 31.115233,9.9219 a 18.899528,18.899528 0 0 0 0.008,0 c 10.97301,0.2071 21.51142,-3.0832 31.94726,-8.379 a 18.899528,18.899528 0 0 0 0.0312,-0.021 c 14.36176,-7.3245 25.84138,-15.4283 33.95508,-26.1836 a 18.899528,18.899528 0 0 0 0.0957,-0.127 c 0.52734,-0.7113 1.03451,-1.4465 1.52149,-2.2012 0.95797,1.3552 1.95,2.6549 3.12304,3.9883 1.92621,2.1897 2.76069,5.9081 12.89649,7.7813 6.62958,1.2487 13.16676,-1.2872 16.64453,-3.8164 3.4761,-2.5281 5.22925,-4.9472 6.74805,-7.2207 2.5303,4.0036 5.28995,8.3975 7.01172,11.0136 1.30861,1.9885 2.37044,3.5749 3.35937,4.9551 0.49447,0.6901 0.95737,1.3109 1.58008,2.0801 0.62271,0.7692 0.36064,1.2886 4.23047,4.0527 a 18.899528,18.899528 0 0 0 0.50195,0.3477 c 6.83003,4.5534 17.85612,3.825 23.33984,0.9082 4.04329,-2.1507 6.62726,-4.5382 8.8086,-7.0488 a 18.899528,18.899528 0 0 0 17.1914,9.4843 l 8.82813,-0.3828 c 6.55263,-0.285 16.94466,-1.0628 31.85352,-2.3476 l 0.0586,-0.01 c 4.15466,-0.3459 7.49028,-0.6018 10.49805,-0.9297 1.13144,2.4928 3.45459,5.3463 8.97656,8.414 a 18.899528,18.899528 0 0 0 0.2207,0.1192 c 4.08467,2.1994 11.64164,3.0247 16.85938,0.8418 5.21773,-2.183 7.57726,-5.3601 9,-7.4942 2.84547,-4.2682 3.10899,-6.5209 3.67578,-8.873 0.31736,-1.3171 0.36016,-3.0167 0.58984,-4.3613 1.68659,0.5258 2.70318,0.6009 4.58399,1.4101 a 18.899528,18.899528 0 0 0 0.16992,0.072 c 10.10954,4.2319 16.12601,9.7793 13.13281,6.1875 l -0.24414,-0.2969 c 4.11152,5.1394 11.28096,10.5979 20.24219,11.0957 4.35481,0.2419 10.02875,-0.8553 14.60156,-3.9648 4.57281,-3.1095 7.39641,-7.5595 8.85742,-11.3164 a 18.899528,18.899528 0 0 0 0.11914,-0.3165 c 3.02933,-8.2225 0.24158,-16.2963 -2.5039,-20.7578 -2.74557,-4.4615 -5.77657,-7.3178 -9.16797,-10.1875 -5.00742,-4.237 -10.74606,-7.5215 -16.76368,-10.3339 2.06688,-3.173 3.92755,-6.5344 4.99024,-10.7852 2.42789,-9.7116 -2.42057,-22.6263 -9.58984,-28.6484 a 18.899528,18.899528 0 0 0 -0.34571,-0.2891 c -6.27878,-5.023 -9.73224,-4.9694 -13.77539,-5.7871 -4.01019,-0.8111 -8.34566,-1.3154 -13.48047,-1.7344 -5.14313,-0.4848 -9.69344,-0.8373 -13.99414,-0.8125 -4.26572,0.026 -8.30448,0.4467 -12.48437,1.4102 -2.96245,0.6557 -6.79062,2.2414 -10.1875,4.9238 -0.3905,-0.1326 -0.77248,-0.2526 -1.14258,-0.3613 -6.12509,-1.8634 -9.49604,-1.5879 -14.6543,-1.5879 -7.16411,0 -14.64585,-0.5165 -22.44726,-1.5645 a 18.899528,18.899528 0 0 0 -0.30274,-0.039 l -13.05859,-1.5352 a 18.899528,18.899528 0 0 0 -1.88281,-0.125 v 0 a 18.899528,18.899528 0 0 0 -14.07032,5.957 c -6.46628,0.8314 -9.94447,4.1201 -12.21679,6.289 -2.6179,2.499 -4.19321,4.7508 -5.76367,7.1758 -2.11099,3.2596 -4.12371,7.6754 -6.15821,11.877 -2.03696,-3.152 -4.34528,-7.1539 -6.21484,-9.5977 -3.9972,-5.3754 -8.44212,-10.4934 -16.70508,-13.5156 -7.67404,-2.8321 -19.36457,0.084 -25.62305,5.418 -2.89124,-4.6261 -5.64952,-8.6418 -10.65234,-12.541 -3.04379,-2.3724 -7.78143,-5.5483 -15.40625,-5.1817 -7.62482,0.3666 -14.59596,6.067 -17.25781,10.3555 a 18.899528,18.899528 0 0 0 -0.35547,0.5918 c -0.70146,1.2275 -1.26273,2.3459 -1.72461,3.3847 -6.37796,-3.0494 -12.88447,-5.1584 -19.74805,-5.8886 a 18.899528,18.899528 0 0 0 -0.22851,-0.022 c -4.73297,-0.4465 -7.03817,-3.6121 -3.12891,0.018 -5.30612,-4.6667 -9.05344,-4.3385 -12.35156,-4.9121 -3.82263,-0.6648 -7.53432,-0.8714 -11.88477,-0.9454 h -0.008 c -8.432515,-0.1455 -14.849543,-0.1486 -22.625003,2.6446 -6.491726,2.3216 -11.049754,5.7437 -15.28125,9.9101 -3.795946,-2.7151 -7.066421,-3.4384 -10.917968,-4.7441 -5.725516,-2.2266 -12.612916,-4.3247 -21.199219,-6.6055 -7.697559,-2.0446 -12.063643,-3.3602 -18.566406,-3.6621 -1.040764,-0.1253 -2.026759,-0.1803 -2.958985,-0.1758 z m 757.499999,0 c -6.52558,0.032 -10.45509,2.9583 -12.69726,4.752 -2.52719,2.0217 -3.88861,3.7353 -5.22657,5.4785 -5.37596,6.7854 -5.52069,11.6979 -6.07617,16.6973 a 18.899528,18.899528 0 0 0 -0.0586,0.6425 c -0.23622,3.0694 -0.67319,7.9256 -1.30664,14.3868 a 18.899528,18.899528 0 0 0 -0.0293,0.332 c -0.45891,5.7361 -1.2034,11.1749 -2.20898,16.3145 l 0.0156,-0.074 c -1.43206,7.1603 -2.31224,12.9701 -2.08203,19.1856 a 18.899528,18.899528 0 0 0 0.008,0.2226 c 0.23471,4.8084 0.39599,11.0679 7.14649,17.8184 3.37523,3.3753 8.74632,5.8375 13.36914,6.2676 4.46192,0.415 7.90052,-0.5518 10.65039,-1.6016 6.93142,-2.5719 11.9882,-8.8726 13.94531,-13.8633 1.2966,-3.3063 1.23796,-6.0158 1.47656,-8.8515 1.257,-0.3712 2.03076,-0.7332 3.76367,-0.9883 l 0.0449,-0.01 c 4.94817,-0.7087 9.63097,-1.6801 14.07617,-3.0254 0.68151,1.8263 1.47446,3.6108 2.41406,5.3222 a 18.899528,18.899528 0 0 0 0.21484,0.3829 c 6.29666,10.8563 16.07151,18.5397 28.26563,25.6074 9.84,5.8577 20.15666,9.7111 31.11328,9.9219 a 18.899528,18.899528 0 0 0 0.008,0 c 10.97299,0.2071 21.51338,-3.0832 31.94922,-8.379 a 18.899528,18.899528 0 0 0 0.0293,-0.021 c 14.36175,-7.3245 25.84333,-15.4283 33.95703,-26.1836 a 18.899528,18.899528 0 0 0 0.0957,-0.127 c 0.52766,-0.7117 1.03424,-1.448 1.52149,-2.2031 0.95834,1.3557 1.94951,2.6562 3.12304,3.9902 1.9262,2.1897 2.76067,5.9081 12.89649,7.7813 6.62955,1.2487 13.16676,-1.2872 16.64453,-3.8164 3.47422,-2.5267 5.22981,-4.9405 6.74805,-7.2129 2.52835,4.0005 5.28511,8.3912 7.00586,11.0058 1.30862,1.9885 2.37628,3.5749 3.36523,4.9551 0.49448,0.6901 0.95736,1.3109 1.58008,2.0801 0.62271,0.7692 0.36046,1.2886 4.23047,4.0527 a 18.899528,18.899528 0 0 0 0.50195,0.3477 c 6.83002,4.5534 17.85609,3.825 23.33979,0.9082 4.0433,-2.1507 6.6273,-4.5382 8.8086,-7.0488 a 18.899528,18.899528 0 0 0 17.1914,9.4843 l 8.8282,-0.3828 c 6.5526,-0.285 16.9446,-1.0628 31.8535,-2.3476 l 0.059,-0.01 c 4.1546,-0.3459 7.4903,-0.6018 10.498,-0.9297 1.1314,2.4929 3.4544,5.3461 8.9766,8.414 a 18.899528,18.899528 0 0 0 0.2207,0.1192 c 4.0847,2.1994 11.6436,3.0247 16.8613,0.8418 5.2178,-2.183 7.5753,-5.3601 8.9981,-7.4942 2.8454,-4.2682 3.1089,-6.5209 3.6757,-8.873 0.3175,-1.3171 0.3603,-3.0167 0.5899,-4.3613 1.6866,0.5258 2.7032,0.6009 4.584,1.4101 a 18.899528,18.899528 0 0 0 0.1699,0.072 c 10.1095,4.2319 16.126,9.7793 13.1328,6.1875 l -0.2441,-0.2969 c 4.1114,5.1394 11.281,10.5979 20.2421,11.0957 4.3549,0.2419 10.0288,-0.8553 14.6016,-3.9648 4.5728,-3.1095 7.3964,-7.5595 8.8574,-11.3164 a 18.899528,18.899528 0 0 0 0.1172,-0.3165 c 3.0294,-8.2225 0.2435,-16.2963 -2.5019,-20.7578 -2.7456,-4.4615 -5.7766,-7.3178 -9.168,-10.1875 -5.0074,-4.237 -10.7461,-7.5215 -16.7637,-10.3339 2.0669,-3.173 3.9275,-6.5344 4.9903,-10.7852 2.4279,-9.7116 -2.4206,-22.6263 -9.5899,-28.6484 a 18.899528,18.899528 0 0 0 -0.3476,-0.2891 c -6.2788,-5.023 -9.7303,-4.9694 -13.7735,-5.7871 -4.0102,-0.8111 -8.3457,-1.3154 -13.4804,-1.7344 -5.1424,-0.4848 -9.6941,-0.8372 -13.9942,-0.8125 v 0 c -4.265,0.027 -8.3032,0.4468 -12.4825,1.4102 -2.9624,0.6557 -6.7906,2.2414 -10.1875,4.9238 -0.3905,-0.1326 -0.7724,-0.2526 -1.1425,-0.3613 -6.1251,-1.8634 -9.4961,-1.5879 -14.6543,-1.5879 -7.1642,0 -14.6459,-0.5165 -22.4473,-1.5645 a 18.899528,18.899528 0 0 0 -0.3027,-0.039 l -13.0586,-1.5352 a 18.899528,18.899528 0 0 0 -1.8828,-0.125 v 0 a 18.899528,18.899528 0 0 0 -14.0723,5.957 c -6.4639,0.8322 -9.941,4.1205 -12.2129,6.289 -2.6179,2.499 -4.1952,4.7508 -5.7656,7.1758 -2.111,3.2596 -4.1218,7.6754 -6.1563,11.877 -2.0369,-3.152 -4.34717,-7.1539 -6.21675,-9.5977 -3.99719,-5.3754 -8.44213,-10.4934 -16.70508,-13.5156 -7.67403,-2.8321 -19.36261,0.084 -25.62109,5.418 -2.89127,-4.6261 -5.64954,-8.6418 -10.65235,-12.541 -3.0438,-2.3724 -7.78143,-5.5483 -15.40625,-5.1817 h -0.002 c -7.62482,0.3666 -14.59597,6.067 -17.25781,10.3555 a 18.899528,18.899528 0 0 0 -0.35352,0.5918 c -0.70145,1.2275 -1.26468,2.3459 -1.72656,3.3847 -6.37796,-3.0494 -12.88447,-5.1584 -19.74805,-5.8886 a 18.899528,18.899528 0 0 0 -0.22851,-0.022 c -4.72775,-0.446 -7.03582,-3.6088 -3.14454,0 -5.29723,-4.6512 -9.04128,-4.3234 -12.33593,-4.8964 -3.82265,-0.6648 -7.53434,-0.8714 -11.88477,-0.9454 h -0.008 c -8.4325,-0.1455 -14.84953,-0.1486 -22.625,2.6446 -6.4917,2.3216 -11.04975,5.7437 -15.28125,9.9101 -3.79595,-2.7151 -7.06642,-3.4384 -10.91797,-4.7441 -5.72549,-2.2266 -12.61488,-4.3247 -21.20117,-6.6055 -7.69758,-2.0446 -12.0617,-3.3602 -18.56445,-3.6621 -1.04077,-0.1253 -2.02676,-0.1803 -2.95899,-0.1758 z m 117.76563,10.3965 c 0.0277,0.028 0.0422,0.04 0.0703,0.068 l 0.61914,0.6562 c -0.23515,-0.2586 -0.45989,-0.4849 -0.68945,-0.7246 z m -319.48633,0.01 c 0.0239,0.024 0.0364,0.034 0.0605,0.059 l 0.6211,0.6562 c -0.23204,-0.2552 -0.45504,-0.478 -0.68164,-0.7148 z m -438.00391,0 c 0.0235,0.024 0.0368,0.033 0.0606,0.057 l 0.62109,0.6562 c -0.23171,-0.2549 -0.45535,-0.4764 -0.68164,-0.7129 z m -15.70703,2.25 0.33203,0.024 c -0.065,0 -0.12647,0 -0.1914,0 -0.0473,0 -0.0933,-0.02 -0.14063,-0.024 z m 437.99609,0 0.33399,0.024 c -0.065,0 -0.12835,0 -0.19336,0 -0.0472,0 -0.0934,-0.02 -0.14063,-0.024 z m 319.50391,0 0.33203,0.024 c -0.065,0 -0.1264,0 -0.1914,0 -0.0472,0 -0.0934,-0.02 -0.14063,-0.024 z m -216.93359,1.5957 c 8.442,-0.022 13.88598,0.8661 16.33398,2.6661 4.736,3.456 4.736,6.0792 0,7.871 -2.688,1.0241 -6.65434,1.5372 -11.90234,1.5372 -8.704,0 -17.47269,0.5111 -26.30469,1.5351 -6.4,0.768 -10.23953,1.6001 -11.51953,2.4961 -1.152,0.896 -1.72852,3.0733 -1.72852,6.5293 0,3.2 0.25558,5.1198 0.76758,5.7598 0.64,0.64 2.11202,0.5746 4.41602,-0.1934 1.408,-0.384 3.13559,-0.5742 5.18359,-0.5742 2.048,-0.128 4.03313,0 5.95313,0.3828 2.048,0.256 3.90436,0.6405 5.56835,1.1523 1.664,0.5121 2.94385,1.0886 3.83985,1.7286 1.024,0.64 1.40834,1.3433 1.15234,2.1113 -0.256,0.768 -1.79337,1.7289 -4.60937,2.8809 -2.688,1.024 -5.82421,1.856 -9.40821,2.496 -6.4,1.024 -10.17612,2.0464 -11.32812,3.0704 -1.024,1.024 -1.53516,3.9046 -1.53516,8.6406 0,6.784 -1.02426,10.6889 -3.07226,11.7129 -1.024,0.512 -1.98291,-0.3201 -2.87891,-2.4961 -0.768,-2.432 -0.89676,-4.8649 -0.38476,-7.2969 0.64,-2.56 0.89557,-4.7987 0.76757,-6.7187 -0.128,-1.92 -1.15226,-2.8809 -3.07226,-2.8809 -1.664,0 -2.87849,-0.7687 -3.64649,-2.3047 -0.64,-1.664 -0.70536,-3.3916 -0.19336,-5.1836 0.64,-1.792 1.72768,-2.9431 3.26368,-3.4551 2.56,-1.024 4.09737,-6.0165 4.60937,-14.9765 l 0.76758,-13.2481 13.82422,-1.5351 c 10.192,-1.12 18.57072,-1.6896 25.13672,-1.7071 z m -567.849612,1.0997 c -0.03364,0.011 -0.06203,0.033 -0.0957,0.043 -0.04781,0.015 -0.100664,0.016 -0.148437,0.031 z m 437.996092,0 c -0.034,0.011 -0.0621,0.033 -0.0957,0.043 -0.048,0.015 -0.0985,0.016 -0.14649,0.031 z m 319.50391,0 c -0.034,0.011 -0.0621,0.033 -0.0957,0.043 -0.048,0.015 -0.10043,0.016 -0.14843,0.031 z m -656.79688,3.1582 c 0.0336,0.1368 0.81771,0.7434 0.92969,2.4804 -0.63171,-1.563 -0.99126,-2.7297 -0.92969,-2.4804 z m 757.5,0 c 0.034,0.1368 0.8177,0.7434 0.92969,2.4804 -0.63171,-1.563 -0.99126,-2.7297 -0.92969,-2.4804 z m -932.251951,0.3281 c 2.432,0 7.743547,1.0876 15.935547,3.2637 8.192,2.1759 14.593172,4.1611 19.201172,5.9531 4.736,1.664 7.743438,3.1994 9.023438,4.6074 1.28,1.408 1.919921,3.6487 1.919922,6.7207 0,4.608 -2.559688,8.5743 -7.679688,11.9023 -5.12,3.2 -12.159141,5.4407 -21.119141,6.7207 -7.936,1.152 -13.120734,2.6875 -15.552734,4.6075 -2.432,1.792 -3.6484375,5.2491 -3.6484375,10.3691 0,5.632 -1.2798438,8.895 -3.8398437,9.791 -3.5840001,1.408 -5.50376567,-0.5117 -5.75976567,-5.7597 -0.12800001,-3.456 0.44851559,-8.3832 1.72851567,-14.7832 1.1519999,-5.888 1.9840937,-12.0317 2.4960937,-18.4317 0.64,-6.528 1.08775,-11.4571 1.34375,-14.7851 0.384,-3.456 1.0873281,-5.8236 2.1113281,-7.1036 1.664,-2.176 2.9438434,-3.2002 3.8398434,-3.0722 z m 757.500001,0 c 2.432,0 7.74355,1.0876 15.93555,3.2637 8.192,2.1759 14.59317,4.1611 19.20117,5.9531 4.736,1.664 7.74344,3.1994 9.02344,4.6074 1.28,1.408 1.91992,3.6487 1.91992,6.7207 0,4.608 -2.55969,8.5743 -7.67969,11.9023 -5.12,3.2 -12.15914,5.4407 -21.11914,6.7207 -7.936,1.152 -13.12073,2.6875 -15.55274,4.6075 -2.43199,1.792 -3.64843,5.2491 -3.64843,10.3691 0,5.632 -1.27985,8.895 -3.83985,9.791 -3.584,1.408 -5.50376,-0.5117 -5.75976,-5.7597 -0.128,-3.456 0.44851,-8.3832 1.72851,-14.7832 1.152,-5.888 1.9841,-12.0317 2.4961,-18.4317 0.64,-6.528 1.08775,-11.4571 1.34375,-14.7851 0.384,-3.456 1.08733,-5.8236 2.11133,-7.1036 1.664,-2.176 2.94384,-3.2002 3.83984,-3.0722 z m -599.08984,0.084 c 2.496,-0.12 6.14337,3.7569 10.94335,11.6289 0.64,1.024 1.34333,2.1116 2.11133,3.2636 l 10.36914,17.6641 c 1.28,2.048 2.94419,1.2159 4.99219,-2.4961 0.768,-1.408 1.6635,-3.3278 2.6875,-5.7598 2.432,-5.504 4.54394,-9.3454 6.33594,-11.5214 1.92,-2.176 4.1607,-2.7506 6.7207,-1.7266 2.56,0.896 5.31186,3.3269 8.25586,7.2949 2.944,3.84 6.78353,9.7934 11.51953,17.8574 2.304,3.84 4.54275,7.1665 6.71875,9.9825 2.304,2.688 3.90478,4.0332 4.80078,4.0332 1.024,0 2.68819,-1.9198 4.99219,-5.7598 2.432,-3.968 4.92828,-8.7684 7.48828,-14.4004 6.016,-13.44 10.36669,-20.1601 13.05469,-20.1601 2.176,0 3.4578,1.151 3.8418,3.455 0.384,2.304 -0.38469,4.0336 -2.30469,5.1856 -1.536,1.024 -4.99119,8.2553 -10.36719,21.6953 -3.84,9.472 -7.61612,16.6399 -11.32812,21.5039 -3.712,4.736 -6.72139,6.3368 -9.02539,4.8008 -0.896,-0.64 -5.82321,-8.1289 -14.78321,-22.4649 -8.96,-14.336 -13.95256,-21.5039 -14.97656,-21.5039 -0.64,0 -1.72767,1.5355 -3.26367,4.6075 -1.408,2.9439 -2.94342,6.4645 -4.60742,10.5605 -1.92,5.376 -3.64955,9.2155 -5.18555,11.5195 -1.536,2.304 -2.94266,3.3283 -4.22266,3.0723 -2.176,-0.384 -7.48755,-8.5128 -15.93554,-24.3848 -8.32,-15.872 -11.96932,-24.7041 -10.94532,-26.4961 0.576,-0.928 1.28129,-1.4111 2.11329,-1.4511 z m 757.5,0 c 2.496,-0.12 6.14336,3.7569 10.94335,11.6289 0.64001,1.024 1.34333,2.1116 2.11133,3.2636 l 10.36914,17.6641 c 1.28,2.048 2.94419,1.2159 4.99219,-2.4961 0.768,-1.408 1.6635,-3.3278 2.6875,-5.7598 2.432,-5.504 4.54394,-9.3454 6.33594,-11.5214 1.92,-2.176 4.15875,-2.7506 6.71875,-1.7266 2.56,0.896 5.31381,3.3269 8.25781,7.2949 2.944,3.84 6.78353,9.7934 11.51953,17.8574 2.304,3.84 4.54275,7.1665 6.71875,9.9825 2.30404,2.688 3.90474,4.0332 4.80074,4.0332 1.024,0 2.6882,-1.9198 4.9922,-5.7598 2.432,-3.968 4.9283,-8.7684 7.4883,-14.4004 6.016,-13.44 10.3667,-20.1601 13.0547,-20.1601 2.176,0 3.4578,1.151 3.8418,3.455 0.384,2.304 -0.3847,4.0336 -2.3047,5.1856 -1.536,1.024 -4.9931,8.2553 -10.3691,21.6953 -3.84,9.472 -7.6142,16.6399 -11.3262,21.5039 -3.712,4.736 -6.7214,6.3368 -9.02539,4.8008 -0.896,-0.64 -5.82321,-8.1289 -14.78321,-22.4649 -8.96,-14.336 -13.95256,-21.5039 -14.97656,-21.5039 -0.64,0 -1.72767,1.5355 -3.26367,4.6075 -1.408,2.9439 -2.94342,6.4645 -4.60742,10.5605 -1.92,5.376 -3.64955,9.2155 -5.18555,11.5195 -1.536,2.304 -2.94266,3.3283 -4.22266,3.0723 -2.176,-0.384 -7.48754,-8.5128 -15.93554,-24.3848 -8.32,-15.872 -11.96932,-24.7041 -10.94532,-26.4961 0.576,-0.928 1.28129,-1.4111 2.11329,-1.4511 z M 99.34375,1048 c 0.862,0 1.75755,0 2.68555,0.018 7.552,0.128 11.96804,0.8967 13.24804,2.3047 1.664,1.664 5.88788,2.815 12.67188,3.455 6.016,0.64 12.73616,3.2017 20.16016,7.6817 7.42399,4.352 12.09562,8.6393 14.01562,12.8633 3.072,6.656 1.85556,13.6951 -3.64844,21.1191 -5.504,7.296 -14.65508,14.2083 -27.45508,20.7363 -8.576,4.352 -16.25506,6.464 -23.03906,6.336 -6.656,-0.128 -13.95267,-2.559 -21.88867,-7.2949 -10.624,-6.1441 -17.791906,-12.4165 -21.503906,-18.8165 -3.584,-6.528 -4.03175,-13.7593 -1.34375,-21.6953 1.408,-4.096 4.671015,-8.9617 9.791015,-14.5937 5.12,-5.76 9.472641,-9.2786 13.056641,-10.5586 2.8,-1.008 7.216,-1.5267 13.25,-1.5547 z m 438,0 c 0.862,0 1.75755,0 2.68555,0.018 7.552,0.128 11.96804,0.8967 13.24804,2.3047 1.664,1.664 5.88788,2.815 12.67188,3.455 6.016,0.64 12.73615,3.2017 20.16016,7.6817 7.42399,4.352 12.09562,8.6393 14.01562,12.8633 3.072,6.656 1.85556,13.6951 -3.64844,21.1191 -5.504,7.296 -14.65508,14.2083 -27.45508,20.7363 -8.576,4.352 -16.25506,6.464 -23.03906,6.336 -6.656,-0.128 -13.95267,-2.559 -21.88867,-7.2949 -10.624,-6.1441 -17.79191,-12.4165 -21.50391,-18.8165 -3.584,-6.528 -4.03175,-13.7593 -1.34375,-21.6953 1.408,-4.096 4.67102,-8.9617 9.79102,-14.5937 5.12,-5.76 9.47264,-9.2786 13.05664,-10.5586 2.8,-1.008 7.216,-1.5267 13.25,-1.5547 z m 319.5,0 c 0.862,0 1.75755,0 2.68555,0.018 7.552,0.128 11.96804,0.8967 13.24804,2.3047 1.664,1.664 5.88788,2.815 12.67188,3.455 6.016,0.64 12.73615,3.2017 20.16016,7.6817 7.42399,4.352 12.09562,8.6393 14.01562,12.8633 3.072,6.656 1.85556,13.6951 -3.64844,21.1191 -5.504,7.296 -14.65508,14.2083 -27.45508,20.7363 -8.576,4.352 -16.25701,6.464 -23.04101,6.336 -6.656,-0.128 -13.95072,-2.559 -21.88672,-7.2949 -10.624,-6.1441 -17.79191,-12.4165 -21.50391,-18.8165 -3.584,-6.528 -4.03175,-13.7593 -1.34375,-21.6953 1.408,-4.096 4.67102,-8.9617 9.79102,-14.5937 5.12,-5.76 9.47264,-9.2786 13.05664,-10.5586 2.8,-1.008 7.216,-1.5267 13.25,-1.5547 z m -498.76953,0.5469 c 3.456,-0.032 7.55111,0.175 12.28711,0.623 9.472,0.768 15.16789,1.9211 17.08789,3.4571 6.4,5.376 4.54364,12.7994 -5.56836,22.2714 -1.536,1.408 -2.68708,2.4957 -3.45508,3.2637 -0.768,0.768 -1.47328,1.6635 -2.11328,2.6875 -0.64,0.896 -1.02239,1.5359 -1.15039,1.9199 -0.128,0.384 -10e-4,0.9605 0.38281,1.7285 0.384,0.768 0.83175,1.3446 1.34375,1.7286 0.64,0.384 1.72962,0.9605 3.26563,1.7285 1.664,0.768 3.19942,1.4079 4.60742,1.9199 1.536,0.512 3.71134,1.3441 6.52734,2.4961 6.656,2.432 12.48066,5.7584 17.47266,9.9824 4.992,4.224 7.04053,7.5524 6.14453,9.9844 -0.896,2.304 -2.49678,3.3917 -4.80078,3.2637 -2.304,-0.128 -4.47934,-1.4713 -6.52735,-4.0313 -2.55999,-3.072 -9.34551,-6.9115 -20.35351,-11.5195 -11.00801,-4.736 -18.36808,-6.848 -22.08008,-6.336 -2.688,0.256 -4.479,1.0228 -5.375,2.3028 -0.896,1.152 -1.53592,3.5849 -1.91992,7.2969 -0.896,11.52 -2.17584,16.8315 -3.83984,15.9355 -2.304,-1.28 -3.83943,-12.7352 -4.60743,-34.3672 v -2.3047 c -0.512,-18.304 -0.25642,-28.6081 0.76758,-30.9121 0.512,-1.152 1.66308,-1.9207 3.45508,-2.3047 2.176,-0.512 4.99322,-0.7824 8.44922,-0.8144 z m 757.49998,0 c 3.456,-0.032 7.5511,0.175 12.2871,0.623 9.472,0.768 15.1679,1.9211 17.0879,3.4571 6.4,5.376 4.5437,12.7994 -5.5683,22.2714 -1.536,1.408 -2.6871,2.4957 -3.4551,3.2637 -0.768,0.768 -1.4733,1.6635 -2.1133,2.6875 -0.64,0.896 -1.0224,1.5359 -1.1504,1.9199 -0.128,0.384 0,0.9605 0.3828,1.7285 0.384,0.768 0.8318,1.3446 1.3438,1.7286 0.64,0.384 1.7296,0.9605 3.2656,1.7285 1.664,0.768 3.1994,1.4079 4.6074,1.9199 1.536,0.512 3.7114,1.3441 6.5274,2.4961 6.656,2.432 12.4806,5.7584 17.4726,9.9824 4.992,4.224 7.0405,7.5524 6.1445,9.9844 -0.8958,2.304 -2.4967,3.3917 -4.8007,3.2637 -2.304,-0.128 -4.4794,-1.4713 -6.5274,-4.0313 -2.56,-3.072 -9.3455,-6.9115 -20.3535,-11.5195 -11.008,-4.736 -18.3681,-6.848 -22.0801,-6.336 -2.688,0.256 -4.479,1.0228 -5.375,2.3028 -0.896,1.152 -1.5359,3.5849 -1.9199,7.2969 -0.896,11.52 -2.1758,16.8315 -3.8398,15.9355 -2.304,-1.28 -3.8395,-12.7352 -4.6075,-34.3672 v -2.3047 c -0.512,-18.304 -0.2564,-28.6081 0.7676,-30.9121 0.512,-1.152 1.6631,-1.9207 3.4551,-2.3047 2.176,-0.512 4.9932,-0.7824 8.4492,-0.8144 z m -834.05272,1.0078 13.05664,1.5351 c 8.576,1.152 16.89694,1.7286 24.96094,1.7286 4.48,0 7.55085,0.2555 9.21485,0.7675 1.792,0.512 2.68945,1.4729 2.68945,2.8809 0,2.56 -3.26497,3.8398 -9.79297,3.8398 -8.576,0 -16.25506,0.64 -23.03906,1.92 -6.656,1.28 -9.98438,2.752 -9.98438,4.416 0,1.664 2.30411,3.136 6.91211,4.416 4.608,1.28 9.91955,1.9199 15.93555,1.9199 5.12,0 7.61628,0.6399 7.48828,1.9199 -0.256,1.792 -4.41647,3.2641 -12.48047,4.4161 -0.512,0.128 -1.08851,0.1914 -1.72851,0.1914 -5.504,0.768 -9.40694,1.6635 -11.71094,2.6875 -2.176,0.896 -3.64802,2.368 -4.41602,4.416 -1.408,3.584 -1.15242,5.8881 0.76758,6.9121 1.408,0.768 7.68041,1.921 18.81641,3.457 11.264,1.408 19.90392,2.1749 25.91992,2.3027 1.792,0.128 3.32742,0.5778 4.60742,1.3458 1.408,0.768 2.17669,1.7269 2.30469,2.8789 0.384,1.664 -0.76903,2.8804 -3.45703,3.6484 -2.688,0.768 -8.63947,1.5367 -17.85547,2.3047 -14.848,1.28 -25.21552,2.0467 -31.10352,2.3027 l -8.83203,0.3848 -0.96094,-12.6719 c -0.64,-8.448 -0.31906,-18.8809 0.96094,-31.2969 z m 757.50002,0 13.0566,1.5351 c 8.576,1.152 16.897,1.7286 24.961,1.7286 4.48,0 7.5508,0.2555 9.2148,0.7675 1.792,0.512 2.6895,1.4729 2.6895,2.8809 0,2.56 -3.265,3.8398 -9.793,3.8398 -8.576,0 -16.2551,0.64 -23.0391,1.92 -6.656,1.28 -9.9843,2.752 -9.9843,4.416 0,1.664 2.3041,3.136 6.9121,4.416 4.608,1.28 9.9195,1.9199 15.9355,1.9199 5.12,0 7.6163,0.6399 7.4883,1.9199 -0.256,1.792 -4.4165,3.2641 -12.4805,4.4161 -0.512,0.128 -1.0885,0.1914 -1.7285,0.1914 -5.504,0.768 -9.4069,1.6635 -11.7109,2.6875 -2.176,0.896 -3.648,2.368 -4.416,4.416 -1.408,3.584 -1.1525,5.8881 0.7675,6.9121 1.408,0.768 7.6804,1.921 18.8164,3.457 11.264,1.408 19.904,2.1749 25.92,2.3027 1.792,0.128 3.3274,0.5778 4.6074,1.3458 1.408,0.768 2.1767,1.7269 2.3047,2.8789 0.384,1.664 -0.7691,2.8804 -3.4571,3.6484 -2.688,0.768 -8.6394,1.5367 -17.8554,2.3047 -14.848,1.28 -25.2155,2.0467 -31.1035,2.3027 l -8.8321,0.3848 -0.9609,-12.6719 c -0.64,-8.448 -0.3191,-18.8809 0.9609,-31.2969 z m -445.79103,4.0039 0.41406,0.2578 c -0.0854,-0.055 -0.18021,-0.086 -0.26562,-0.1406 -0.0556,-0.034 -0.0925,-0.084 -0.14844,-0.1172 z m -487.20508,4.2031 c -5.448,0 -10.427453,0.7202 -14.939452,2.1602 -5.888,1.792 -10.751797,4.7994 -14.591797,9.0234 -3.712,4.224 -5.56836,9.2166 -5.56836,14.9766 0,1.92 0.44775,3.9051 1.34375,5.9531 1.024,2.048 2.175078,3.52 3.455078,4.416 1.408,0.896 2.561032,0.896 3.457032,0 0.384,-0.512 1.600437,-0.193 3.648437,0.959 2.176,1.024 4.48011,2.496 6.91211,4.416 5.375999,4.096 11.135292,6.6557 17.279292,7.6797 6.144,1.024 11.71113,0.8972 16.70313,-0.3828 4.992,-1.408 9.66558,-3.3931 14.01758,-5.9531 4.48,-2.56 8.06395,-5.0563 10.75195,-7.4883 2.688,-2.56 4.479,-4.672 5.375,-6.336 1.664,-2.944 2.36928,-5.0559 2.11328,-6.3359 -0.128,-1.408 -1.21762,-3.3278 -3.26562,-5.7598 -1.28,-1.408 -3.71093,-3.199 -7.29492,-5.375 -3.58401,-2.304 -7.23332,-4.2891 -10.94532,-5.9531 -7.424,-3.328 -15.03965,-5.2477 -22.84765,-5.7597 -1.92,-0.16 -3.78752,-0.2403 -5.60352,-0.2403 z m 438,0 c -5.448,0 -10.42745,0.7202 -14.93945,2.1602 -5.888,1.792 -10.7518,4.7994 -14.5918,9.0234 -3.712,4.224 -5.56836,9.2166 -5.56836,14.9766 0,1.92 0.44775,3.9051 1.34375,5.9531 1.024,2.048 2.17508,3.52 3.45508,4.416 1.408,0.896 2.56103,0.896 3.45703,0 0.384,-0.512 1.60044,-0.193 3.64844,0.959 2.176,1.024 4.48011,2.496 6.91211,4.416 5.376,4.096 11.13529,6.6557 17.27929,7.6797 6.144,1.024 11.71113,0.8972 16.70313,-0.3828 4.992,-1.408 9.66558,-3.3931 14.01758,-5.9531 4.48,-2.56 8.06395,-5.0563 10.75195,-7.4883 2.688,-2.56 4.479,-4.672 5.375,-6.336 1.664,-2.944 2.36928,-5.0559 2.11328,-6.3359 -0.128,-1.408 -1.21762,-3.3278 -3.26562,-5.7598 -1.28,-1.408 -3.71094,-3.199 -7.29492,-5.375 -3.58401,-2.304 -7.23332,-4.2891 -10.94532,-5.9531 -7.424,-3.328 -15.03965,-5.2477 -22.84765,-5.7597 -1.92,-0.16 -3.78752,-0.2403 -5.60352,-0.2403 z m 319.5,0 c -5.448,0 -10.42745,0.7202 -14.93945,2.1602 -5.888,1.792 -10.7518,4.7994 -14.5918,9.0234 -3.712,4.224 -5.56836,9.2166 -5.56836,14.9766 0,1.92 0.44775,3.9051 1.34375,5.9531 1.024,2.048 2.17508,3.52 3.45508,4.416 1.408,0.896 2.56103,0.896 3.45703,0 0.384,-0.512 1.60044,-0.193 3.64844,0.959 2.176,1.024 4.48011,2.496 6.91211,4.416 5.376,4.096 11.13529,6.6557 17.27929,7.6797 6.144,1.024 11.71113,0.8972 16.70313,-0.3828 4.992,-1.408 9.66558,-3.3931 14.01758,-5.9531 4.48,-2.56 8.06395,-5.0563 10.75195,-7.4883 2.688,-2.56 4.479,-4.672 5.375,-6.336 1.664,-2.944 2.36733,-5.0559 2.11133,-6.3359 -0.128,-1.408 -1.21567,-3.3278 -3.26367,-5.7598 -1.28,-1.408 -3.71094,-3.199 -7.29492,-5.375 -3.58401,-2.304 -7.23332,-4.2891 -10.94532,-5.9531 -7.424,-3.328 -15.03965,-5.2477 -22.84765,-5.7597 -1.92,-0.16 -3.78752,-0.2403 -5.60352,-0.2403 z m -496.23633,2.5449 c -5.632,0 -8.96037,0.3844 -9.98437,1.1524 -0.896,0.64 -1.34375,2.8153 -1.34375,6.5273 0,3.456 0.25558,5.568 0.76758,6.336 0.64,0.64 2.24078,0.5766 4.80078,-0.1914 3.968,-1.28 7.80753,-3.073 11.51953,-5.377 3.712,-2.432 5.56836,-4.4152 5.56836,-5.9512 0,-0.64 -1.08767,-1.2165 -3.26367,-1.7285 -2.176,-0.512 -4.86446,-0.7676 -8.06446,-0.7676 z m 757.50004,0 c -5.632,0 -8.9604,0.3844 -9.9844,1.1524 -0.896,0.64 -1.3438,2.8153 -1.3438,6.5273 0,3.456 0.2556,5.568 0.7676,6.336 0.64,0.64 2.2408,0.5766 4.8008,-0.1914 3.968,-1.28 7.8075,-3.073 11.5195,-5.377 3.712,-2.432 5.5684,-4.4152 5.5684,-5.9512 0,-0.64 -1.0877,-1.2165 -3.2637,-1.7285 -2.176,-0.512 -4.8644,-0.7676 -8.0644,-0.7676 z M 27.089844,1060.498 c -4.48,0 -7.67961,1.0243 -9.59961,3.0723 -1.792,1.92 -2.689453,5.3752 -2.689453,10.3672 0.384,0.768 1.921375,1.1523 4.609375,1.1523 2.688,-0.128 6.206594,-0.6391 10.558594,-1.5351 4.48,-1.024 8.384891,-2.177 11.712891,-3.457 l 7.103515,-2.6875 -6.335937,-3.4551 c -4.224,-2.176 -9.343375,-3.3291 -15.359375,-3.4571 z m 757.499996,0 c -4.48,0 -7.67961,1.0243 -9.59961,3.0723 -1.792,1.92 -2.68945,5.3752 -2.68945,10.3672 0.384,0.768 1.92138,1.1523 4.60938,1.1523 2.688,-0.128 6.20659,-0.6391 10.55859,-1.5351 4.48,-1.024 8.38489,-2.177 11.71289,-3.457 l 7.10352,-2.6875 -6.33594,-3.4551 c -4.224,-2.176 -9.34338,-3.3291 -15.35938,-3.4571 z m -147.37695,2.877 c 0,-0.03 0.01,0.087 0.0137,0.061 0.0216,0.3357 0.0139,0.49 0.01,0.7325 -0.01,-0.24 -0.0234,-0.441 -0.0234,-0.793 z m -531.18164,13.2832 c 1.25664,10e-5 2.59676,0.057 4.02539,0.1758 a 18.899528,18.899528 0 0 0 0.33984,0.029 c 5.53055,0.3628 10.85208,1.6762 16.34961,4.1406 1.27221,0.5703 2.55031,1.401 3.82422,2.082 -0.88273,0.5669 -1.12292,0.8942 -2.20703,1.5137 a 18.899528,18.899528 0 0 0 -0.20703,0.125 c -2.85118,1.6772 -5.91205,2.9568 -9.28516,3.9336 -2.00342,0.495 -4.74857,0.7103 -8.74023,0.045 -2.99526,-0.4992 -5.72009,-1.6135 -8.93945,-4.0664 l 0.25781,0.1973 c -2.47334,-1.9527 -5.182498,-3.4822 -7.919923,-5.0039 0.962441,-0.5935 1.540325,-1.3692 3.054687,-1.8301 a 18.899528,18.899528 0 0 0 0.244141,-0.074 c 2.41325,-0.7702 5.433195,-1.268 9.203125,-1.2676 z m 438.00391,0 c 1.25664,10e-5 2.59676,0.057 4.02539,0.1758 a 18.899528,18.899528 0 0 0 0.33203,0.029 c 5.53054,0.3628 10.85401,1.6762 16.35156,4.1406 1.27427,0.5712 2.55603,1.4075 3.83203,2.0899 -0.88169,0.566 -1.12656,0.8873 -2.20898,1.5058 a 18.899528,18.899528 0 0 0 -0.20508,0.125 c -2.84935,1.6761 -5.91664,2.957 -9.28711,3.9336 -2.00375,0.496 -4.75301,0.7108 -8.74805,0.045 -2.99527,-0.4992 -5.71227,-1.6135 -8.93164,-4.0664 l 0.25781,0.1973 c -2.4721,-1.9517 -5.18407,-3.4827 -7.91992,-5.0039 0.96193,-0.5928 1.54362,-1.3696 3.05664,-1.8301 a 18.899528,18.899528 0 0 0 0.24219,-0.074 c 2.41325,-0.7702 5.43319,-1.268 9.20313,-1.2676 z m 319.49609,0 c 1.25665,10e-5 2.59676,0.057 4.02539,0.1758 a 18.899528,18.899528 0 0 0 0.33984,0.029 c 5.53055,0.3628 10.85206,1.6762 16.34961,4.1406 1.27223,0.5703 2.55029,1.401 3.82422,2.082 -0.88271,0.5669 -1.12295,0.8942 -2.20703,1.5137 a 18.899528,18.899528 0 0 0 -0.20703,0.125 c -2.8512,1.6772 -5.91208,2.9568 -9.28516,3.9336 -2.00345,0.495 -4.74856,0.7103 -8.74023,0.045 -2.99528,-0.4992 -5.72009,-1.6135 -8.93945,-4.0664 l 0.25781,0.1973 c -2.47332,-1.9527 -5.18249,-3.4822 -7.91992,-5.0039 0.96242,-0.5935 1.54034,-1.3692 3.05468,-1.8301 a 18.899528,18.899528 0 0 0 0.24414,-0.074 c 2.41325,-0.7702 5.43319,-1.268 9.20313,-1.2676 z m -726.11328,0.2266 c 0.19486,0.045 0.29344,0.4916 0.004,1.0039 a 18.899528,18.899528 0 0 0 -0.19336,0.3398 c 0.0505,-0.094 -0.13645,0.1635 -0.0957,0.088 0.0414,-0.1757 -0.10909,-1.0119 -0.0586,-1.1211 0.0829,-0.1789 0.17333,-0.2752 0.25586,-0.3047 0.0309,-0.011 0.06,-0.012 0.0879,-0.01 z m 438.00391,0 c 0.19239,0.045 0.28574,0.4916 -0.004,1.0039 a 18.899528,18.899528 0 0 0 -0.18359,0.3398 c 0.0506,-0.094 -0.13653,0.1635 -0.0957,0.088 0.0416,-0.1757 -0.11118,-1.0119 -0.0606,-1.1211 0.0829,-0.1789 0.17403,-0.2752 0.25586,-0.3047 0.0307,-0.011 0.0604,-0.012 0.0879,-0.01 z m 319.49609,0 c 0.19486,0.045 0.29345,0.4916 0.004,1.0039 a 18.899528,18.899528 0 0 0 -0.19336,0.3398 c 0.0506,-0.094 -0.13653,0.1635 -0.0957,0.088 0.0416,-0.1757 -0.10924,-1.0119 -0.0586,-1.1211 0.0829,-0.1789 0.17332,-0.2752 0.25586,-0.3047 0.031,-0.011 0.0601,-0.012 0.0879,-0.01 z m -804.039064,1.2695 1.216797,0.6269 c -0.173858,-0.098 -0.504122,-0.1892 -0.677734,-0.2871 -0.193474,-0.094 -0.343518,-0.248 -0.539063,-0.3398 z m 437.996094,0 1.21875,0.6269 c -0.17235,-0.097 -0.49988,-0.1899 -0.67187,-0.2871 -0.19541,-0.095 -0.34948,-0.2472 -0.54688,-0.3398 z m 319.50391,0 1.21679,0.6269 c -0.17386,-0.098 -0.50414,-0.1892 -0.67773,-0.2871 -0.19351,-0.094 -0.34336,-0.248 -0.53906,-0.3398 z m -217.92774,17.8496 c -0.008,0.2404 0.0608,0.4533 0.0215,0.6426 l -0.16211,0.6933 c 0.10431,-0.4176 0.0454,-0.9146 0.14062,-1.3359 z m -264.3457,12.5645 c 0.75917,1.4666 0.40083,2.3239 0.41211,2.3613 0.014,0.046 -0.2269,-1.3445 -0.41211,-2.3613 z m 757.50003,0 c 0.7591,1.4666 0.4008,2.3239 0.4121,2.3613 0.015,0.046 -0.227,-1.3445 -0.4121,-2.3613 z m -976.28519,8.7324 -0.20703,0.1172 c 0.0411,-0.023 0.0703,-0.049 0.11133,-0.072 0.0302,-0.019 0.0653,-0.027 0.0957,-0.045 z m 438.00391,0 -0.20703,0.1172 c 0.0412,-0.023 0.0705,-0.049 0.11133,-0.072 0.0302,-0.019 0.0651,-0.027 0.0957,-0.045 z m 319.49609,0 -0.20703,0.1172 c 0.0412,-0.023 0.0705,-0.049 0.11133,-0.072 0.0302,-0.019 0.0651,-0.027 0.0957,-0.045 z"
       transform="scale(0.26458333)"
       id="path819"
       inkscape:connector-curvature="0" />
  </g>
</svg>
